<mxfile host="Electron" modified="2023-11-13T20:15:05.190Z" agent="Mozilla/5.0 (Windows NT 10.0; Win64; x64) AppleWebKit/537.36 (KHTML, like Gecko) draw.io/22.0.3 Chrome/114.0.5735.289 Electron/25.8.4 Safari/537.36" etag="7n5NJplEoCZLxA22e6Jd" version="22.0.3" type="device">
  <diagram name="Page-1" id="1A2gPPfQfYN7-np6HzHH">
    <mxGraphModel dx="880" dy="532" grid="1" gridSize="10" guides="1" tooltips="1" connect="1" arrows="1" fold="1" page="1" pageScale="1" pageWidth="850" pageHeight="1100" math="0" shadow="0">
      <root>
        <mxCell id="0" />
        <mxCell id="1" parent="0" />
        <mxCell id="VqZ4n8kQQ8ND7D1PAzpy-7" value="" style="rounded=1;whiteSpace=wrap;html=1;shadow=0;" vertex="1" parent="1">
          <mxGeometry x="190" y="10" width="120" height="60" as="geometry" />
        </mxCell>
        <mxCell id="VqZ4n8kQQ8ND7D1PAzpy-3" value="Home&amp;nbsp; &amp;nbsp; &amp;nbsp; &amp;nbsp; &amp;nbsp; &amp;nbsp; &amp;nbsp; &amp;nbsp; &amp;nbsp; &amp;nbsp; &amp;nbsp; &amp;nbsp; &amp;nbsp; &amp;nbsp; &amp;nbsp; &amp;nbsp; &amp;nbsp;Old&amp;nbsp; School&amp;nbsp; &amp;nbsp; &amp;nbsp; &amp;nbsp; &amp;nbsp; &amp;nbsp; &amp;nbsp; &amp;nbsp; &amp;nbsp; &amp;nbsp; &amp;nbsp; &amp;nbsp; &amp;nbsp; &amp;nbsp; New and Upcoming" style="rounded=0;whiteSpace=wrap;html=1;align=center;" vertex="1" parent="1">
          <mxGeometry width="850" height="80" as="geometry" />
        </mxCell>
        <mxCell id="VqZ4n8kQQ8ND7D1PAzpy-4" value="" style="ellipse;whiteSpace=wrap;html=1;" vertex="1" parent="1">
          <mxGeometry x="20" width="120" height="80" as="geometry" />
        </mxCell>
        <mxCell id="VqZ4n8kQQ8ND7D1PAzpy-6" value="&amp;nbsp;Game Reviver @ Deon JOhannes&amp;nbsp; &amp;nbsp; &amp;nbsp; &amp;nbsp; &amp;nbsp; &amp;nbsp; &amp;nbsp; &amp;nbsp; &amp;nbsp; &amp;nbsp; &amp;nbsp; &amp;nbsp; &amp;nbsp; &amp;nbsp; &amp;nbsp; &amp;nbsp; &amp;nbsp; &amp;nbsp; &amp;nbsp;Home&amp;nbsp; &amp;nbsp; &amp;nbsp; &amp;nbsp; &amp;nbsp; &amp;nbsp; &amp;nbsp; &amp;nbsp; Old school&amp;nbsp; &amp;nbsp;New&amp;nbsp; And Upcoming&amp;nbsp; &amp;nbsp; &amp;nbsp; &amp;nbsp; &amp;nbsp; &amp;nbsp; &amp;nbsp;Contact Us&amp;nbsp;" style="rounded=0;whiteSpace=wrap;html=1;" vertex="1" parent="1">
          <mxGeometry y="1000" width="850" height="100" as="geometry" />
        </mxCell>
        <mxCell id="VqZ4n8kQQ8ND7D1PAzpy-9" value="" style="endArrow=none;html=1;rounded=0;entryX=1;entryY=0;entryDx=0;entryDy=0;" edge="1" parent="1" target="VqZ4n8kQQ8ND7D1PAzpy-4">
          <mxGeometry width="50" height="50" relative="1" as="geometry">
            <mxPoint x="40" y="70" as="sourcePoint" />
            <mxPoint x="105" y="15" as="targetPoint" />
          </mxGeometry>
        </mxCell>
        <mxCell id="VqZ4n8kQQ8ND7D1PAzpy-11" value="" style="endArrow=none;html=1;rounded=0;entryX=1;entryY=1;entryDx=0;entryDy=0;exitX=0;exitY=0;exitDx=0;exitDy=0;" edge="1" parent="1" source="VqZ4n8kQQ8ND7D1PAzpy-4" target="VqZ4n8kQQ8ND7D1PAzpy-4">
          <mxGeometry width="50" height="50" relative="1" as="geometry">
            <mxPoint x="50" y="70" as="sourcePoint" />
            <mxPoint x="110" y="10" as="targetPoint" />
          </mxGeometry>
        </mxCell>
        <mxCell id="VqZ4n8kQQ8ND7D1PAzpy-16" value="h2" style="rounded=1;whiteSpace=wrap;html=1;" vertex="1" parent="1">
          <mxGeometry x="50" y="100" width="390" height="60" as="geometry" />
        </mxCell>
        <mxCell id="VqZ4n8kQQ8ND7D1PAzpy-17" value="Text" style="text;html=1;align=center;verticalAlign=middle;resizable=0;points=[];autosize=1;strokeColor=none;fillColor=none;" vertex="1" parent="1">
          <mxGeometry x="360" y="208" width="40" height="30" as="geometry" />
        </mxCell>
        <mxCell id="VqZ4n8kQQ8ND7D1PAzpy-23" value="h3" style="rounded=0;whiteSpace=wrap;html=1;" vertex="1" parent="1">
          <mxGeometry x="70" y="200" width="460" height="80" as="geometry" />
        </mxCell>
        <mxCell id="VqZ4n8kQQ8ND7D1PAzpy-25" value="" style="rounded=0;whiteSpace=wrap;html=1;" vertex="1" parent="1">
          <mxGeometry x="80" y="320" width="480" height="200" as="geometry" />
        </mxCell>
        <mxCell id="VqZ4n8kQQ8ND7D1PAzpy-28" value="Paragraph" style="rounded=0;whiteSpace=wrap;html=1;" vertex="1" parent="1">
          <mxGeometry x="80" y="560" width="560" height="210" as="geometry" />
        </mxCell>
        <mxCell id="VqZ4n8kQQ8ND7D1PAzpy-29" value="" style="rounded=1;whiteSpace=wrap;html=1;" vertex="1" parent="1">
          <mxGeometry x="140" y="800" width="440" height="180" as="geometry" />
        </mxCell>
        <mxCell id="VqZ4n8kQQ8ND7D1PAzpy-30" value="" style="endArrow=none;html=1;rounded=0;exitX=0.98;exitY=0.039;exitDx=0;exitDy=0;exitPerimeter=0;entryX=0.023;entryY=0.972;entryDx=0;entryDy=0;entryPerimeter=0;" edge="1" parent="1" source="VqZ4n8kQQ8ND7D1PAzpy-29" target="VqZ4n8kQQ8ND7D1PAzpy-29">
          <mxGeometry width="50" height="50" relative="1" as="geometry">
            <mxPoint x="355" y="915" as="sourcePoint" />
            <mxPoint x="160" y="970" as="targetPoint" />
          </mxGeometry>
        </mxCell>
        <mxCell id="VqZ4n8kQQ8ND7D1PAzpy-31" value="" style="endArrow=none;html=1;rounded=0;entryX=0.984;entryY=0.961;entryDx=0;entryDy=0;exitX=0.007;exitY=0.061;exitDx=0;exitDy=0;exitPerimeter=0;entryPerimeter=0;" edge="1" parent="1" source="VqZ4n8kQQ8ND7D1PAzpy-29" target="VqZ4n8kQQ8ND7D1PAzpy-29">
          <mxGeometry width="50" height="50" relative="1" as="geometry">
            <mxPoint x="355" y="910" as="sourcePoint" />
            <mxPoint x="405" y="860" as="targetPoint" />
          </mxGeometry>
        </mxCell>
        <mxCell id="VqZ4n8kQQ8ND7D1PAzpy-32" value="" style="endArrow=none;html=1;rounded=0;exitX=0;exitY=1;exitDx=0;exitDy=0;entryX=1;entryY=0;entryDx=0;entryDy=0;" edge="1" parent="1" source="VqZ4n8kQQ8ND7D1PAzpy-25" target="VqZ4n8kQQ8ND7D1PAzpy-25">
          <mxGeometry width="50" height="50" relative="1" as="geometry">
            <mxPoint x="350" y="370" as="sourcePoint" />
            <mxPoint x="400" y="320" as="targetPoint" />
          </mxGeometry>
        </mxCell>
        <mxCell id="VqZ4n8kQQ8ND7D1PAzpy-33" value="" style="endArrow=none;html=1;rounded=0;entryX=1;entryY=1;entryDx=0;entryDy=0;exitX=0;exitY=0;exitDx=0;exitDy=0;" edge="1" parent="1" source="VqZ4n8kQQ8ND7D1PAzpy-25" target="VqZ4n8kQQ8ND7D1PAzpy-25">
          <mxGeometry width="50" height="50" relative="1" as="geometry">
            <mxPoint x="310" y="440" as="sourcePoint" />
            <mxPoint x="360" y="390" as="targetPoint" />
          </mxGeometry>
        </mxCell>
      </root>
    </mxGraphModel>
  </diagram>
</mxfile>
